<?xml version="1.0" encoding="utf-8"?>
<!-- Generator: Adobe Illustrator 22.0.1, SVG Export Plug-In . SVG Version: 6.00 Build 0)  -->
<svg version="1.1" id="Layer_1" xmlns="http://www.w3.org/2000/svg" xmlns:xlink="http://www.w3.org/1999/xlink" x="0px" y="0px"
	 viewBox="0 0 208.6 47.2" style="enable-background:new 0 0 208.6 47.2;" xml:space="preserve">
<style type="text/css">
	.st0{fill:#F37321;}
	.st1{fill:none;stroke:#000000;stroke-width:0.375;}
	.st2{fill:#00816F;}
</style>
<g>
	<path class="st0" d="M107.4,17.4c1.6,0,2.6-0.6,2.6-2c0-1.5-1-1.9-2.7-1.9h-1.5c-0.2,0-0.2,0-0.2,0.2v5.8c0,0.2,0,0.2,0.2,0.2h0.5
		c0.2,0,0.2,0,0.2-0.2v-2H107.4L107.4,17.4z M106.5,16.6v-2.5h0.8c1.1,0,1.7,0.3,1.7,1.2c0,0.8-0.5,1.2-1.6,1.2H106.5L106.5,16.6z
		 M115.8,13.8c0-0.1,0-0.1-0.1-0.2c-0.1-0.1-0.7-0.3-1.7-0.3c-1.1,0-2.2,0.3-2.2,1.7c0,2.2,3.3,1.2,3.3,3c0,0.7-0.6,1-1.5,1
		c-0.9,0-1.4-0.2-1.8-0.3c-0.1,0-0.2,0-0.2,0.1v0.5c0,0.1,0,0.2,0.1,0.2c0.1,0.1,0.8,0.3,1.9,0.3c1.4,0,2.4-0.5,2.4-1.8
		c0-2.5-3.3-1.6-3.3-3c0-0.6,0.5-0.8,1.3-0.8c0.8,0,1.2,0.2,1.6,0.3c0.1,0.1,0.2,0,0.2-0.1V13.8L115.8,13.8z M119.5,17.2v2.2
		c0,0.2,0,0.2,0.2,0.2h0.5c0.2,0,0.2,0,0.2-0.2v-2.2l2.2-3.5c0.1-0.2,0.1-0.3-0.1-0.3h-0.7c-0.1,0-0.2,0-0.2,0.2l-1.6,2.7l-1.6-2.7
		c-0.1-0.1-0.1-0.2-0.2-0.2h-0.7c-0.1,0-0.2,0.1-0.1,0.3L119.5,17.2L119.5,17.2z M124.8,16.6c0-1.4,0.6-2.4,2.3-2.4
		c0.8,0,1.4,0.2,1.6,0.3c0.1,0.1,0.2,0,0.2-0.1v-0.5c0-0.1,0-0.2-0.1-0.2c-0.3-0.2-1.1-0.3-1.8-0.3c-2.2,0-3.2,1.3-3.2,3.3
		c0,1.9,0.9,3.1,3.2,3.1c1,0,1.6-0.2,1.8-0.3c0.1-0.1,0.1-0.1,0.1-0.2v-0.5c0-0.2-0.1-0.1-0.2-0.1c-0.3,0.1-0.9,0.3-1.6,0.3
		C125.4,18.9,124.8,18,124.8,16.6L124.8,16.6z M130.9,19.4c0,0.2,0,0.2,0.2,0.2h0.5c0.2,0,0.2,0,0.2-0.2v-2.6h3.1v2.6
		c0,0.2,0,0.2,0.2,0.2h0.6c0.2,0,0.2,0,0.2-0.2v-5.8c0-0.2-0.1-0.2-0.2-0.2h-0.6c-0.2,0-0.2,0-0.2,0.2v2.5h-3.1v-2.5
		c0-0.2,0-0.2-0.2-0.2h-0.5c-0.2,0-0.2,0-0.2,0.2V19.4L130.9,19.4z M138,16.6c0,1.6,0.8,3.2,3.3,3.2c2.6,0,3.3-1.8,3.3-3.2
		c0-1.6-0.9-3.2-3.3-3.2C138.7,13.3,138,15.1,138,16.6L138,16.6z M141.3,14.1c1.9,0,2.3,1.4,2.3,2.4c0,1.1-0.5,2.4-2.3,2.4
		c-1.8,0-2.3-1.4-2.3-2.4C139,15.4,139.5,14.1,141.3,14.1L141.3,14.1z M146.9,19.6h3.7c0.2,0,0.2,0,0.2-0.2v-0.4
		c0-0.2,0-0.2-0.2-0.2h-2.9v-5.2c0-0.2-0.1-0.2-0.2-0.2h-0.5c-0.2,0-0.2,0-0.2,0.2v5.8C146.7,19.6,146.7,19.6,146.9,19.6L146.9,19.6
		z M153.6,19.4v-5.8c0-0.2-0.1-0.2-0.2-0.2h-0.5c-0.2,0-0.2,0-0.2,0.2v5.8c0,0.2,0,0.2,0.2,0.2h0.5
		C153.5,19.6,153.6,19.6,153.6,19.4L153.6,19.4z M160.9,19.6c0.1,0,0.2-0.1,0.2-0.1v-5.9c0-0.2,0-0.2-0.2-0.2h-0.5
		c-0.2,0-0.2,0-0.2,0.2v4c0,0.3,0,0.5,0.1,0.8c-0.1-0.3-0.1-0.4-0.3-0.7l-2.9-4.2c-0.1-0.1-0.1-0.1-0.3-0.1h-0.6
		c-0.1,0-0.2,0.1-0.2,0.2v5.9c0,0.2,0,0.2,0.2,0.2h0.5c0.2,0,0.2,0,0.2-0.2v-4c0-0.2,0-0.6-0.1-0.8c0.1,0.2,0.2,0.4,0.4,0.7l2.9,4.1
		c0.1,0.1,0.1,0.1,0.3,0.1H160.9L160.9,19.6z M160.3,18.4C160.3,18.4,160.3,18.4,160.3,18.4L160.3,18.4L160.3,18.4z M166.6,17.1
		c0,0.1,0,0.2,0.1,0.2h1.2v1.5c-0.3,0.1-0.8,0.2-1.3,0.2c-1.6,0-2.4-0.9-2.4-2.4c0-1.3,0.6-2.4,2.4-2.4c1,0,1.7,0.4,1.9,0.5
		c0.1,0.1,0.2,0.1,0.2-0.1V14c0-0.1,0-0.1-0.1-0.2c-0.2-0.2-1-0.5-2.1-0.5c-2.1,0-3.4,1.2-3.4,3.2c0,2.1,1.4,3.2,3.4,3.2
		c1,0,1.8-0.2,2.1-0.3c0.2-0.1,0.2-0.1,0.2-0.3v-2.5c0-0.1,0-0.1-0.1-0.1h-1.9c-0.1,0-0.1,0.1-0.1,0.2V17.1L166.6,17.1z M173.6,18.9
		c-1.1,0-1.6-0.5-1.6-1.7v-3.6c0-0.2-0.1-0.2-0.2-0.2h-0.5c-0.2,0-0.2,0-0.2,0.2v3.7c0,1.5,0.9,2.4,2.6,2.4c1.7,0,2.6-0.8,2.6-2.4
		v-3.7c0-0.2,0-0.2-0.2-0.2h-0.6c-0.2,0-0.2,0-0.2,0.2v3.6C175.2,18.3,174.7,18.9,173.6,18.9L173.6,18.9z M179.5,19.4v-5.8
		c0-0.2-0.1-0.2-0.2-0.2h-0.5c-0.2,0-0.2,0-0.2,0.2v5.8c0,0.2,0,0.2,0.2,0.2h0.5C179.5,19.6,179.5,19.6,179.5,19.4L179.5,19.4z
		 M185.8,13.8c0-0.1,0-0.1-0.1-0.2c-0.1-0.1-0.7-0.3-1.7-0.3c-1.1,0-2.2,0.3-2.2,1.7c0,2.2,3.3,1.2,3.3,3c0,0.7-0.6,1-1.5,1
		c-0.9,0-1.4-0.2-1.8-0.3c-0.1,0-0.2,0-0.2,0.1v0.5c0,0.1,0,0.2,0.1,0.2c0.1,0.1,0.8,0.3,1.9,0.3c1.4,0,2.4-0.5,2.4-1.8
		c0-2.5-3.3-1.6-3.3-3c0-0.6,0.5-0.8,1.3-0.8c0.8,0,1.2,0.2,1.6,0.3c0.1,0.1,0.2,0,0.2-0.1L185.8,13.8L185.8,13.8z M190.4,19.4v-5.2
		h1.8c0.2,0,0.2-0.1,0.2-0.2v-0.4c0-0.2,0-0.2-0.2-0.2h-4.5c-0.2,0-0.2,0-0.2,0.2V14c0,0.2,0,0.2,0.2,0.2h1.8v5.2
		c0,0.2,0.1,0.2,0.2,0.2h0.5C190.3,19.6,190.4,19.6,190.4,19.4L190.4,19.4z M195.1,19.4v-5.8c0-0.2-0.1-0.2-0.2-0.2h-0.5
		c-0.2,0-0.2,0-0.2,0.2v5.8c0,0.2,0,0.2,0.2,0.2h0.5C195.1,19.6,195.1,19.6,195.1,19.4L195.1,19.4z M198.3,16.6
		c0-1.4,0.6-2.4,2.3-2.4c0.8,0,1.4,0.2,1.6,0.3c0.1,0.1,0.2,0,0.2-0.1v-0.5c0-0.1,0-0.2-0.1-0.2c-0.3-0.2-1.1-0.3-1.8-0.3
		c-2.2,0-3.2,1.3-3.2,3.3c0,1.9,0.9,3.1,3.2,3.1c1,0,1.6-0.2,1.8-0.3c0.1-0.1,0.1-0.1,0.1-0.2v-0.5c0-0.2-0.1-0.1-0.2-0.1
		c-0.3,0.1-0.9,0.3-1.6,0.3C198.9,18.9,198.3,18,198.3,16.6L198.3,16.6z M208.2,13.8c0-0.1,0-0.1-0.1-0.2c-0.1-0.1-0.7-0.3-1.7-0.3
		c-1.1,0-2.2,0.3-2.2,1.7c0,2.2,3.3,1.2,3.3,3c0,0.7-0.6,1-1.5,1c-0.9,0-1.4-0.2-1.8-0.3c-0.1,0-0.2,0-0.2,0.1v0.5
		c0,0.1,0,0.2,0.1,0.2c0.1,0.1,0.8,0.3,1.9,0.3c1.4,0,2.4-0.5,2.4-1.8c0-2.5-3.3-1.6-3.3-3c0-0.6,0.5-0.8,1.3-0.8
		c0.8,0,1.2,0.2,1.6,0.3c0.1,0.1,0.2,0,0.2-0.1V13.8L208.2,13.8z"/>
	<path d="M81.9,19.5c0,0.1,0,0.2,0.2,0.2h0.4c0.1,0,0.2,0,0.2-0.2v-2.5h2c0.1,0,0.2,0,0.2-0.2v-0.3c0-0.1,0-0.2-0.2-0.2h-2V14h2.8
		c0.1,0,0.2,0,0.2-0.2v-0.3c0-0.1,0-0.2-0.2-0.2h-3.4c-0.1,0-0.2,0-0.2,0.2V19.5L81.9,19.5z M87.1,16.6c0,1.6,0.8,3.2,3.2,3.2
		c2.5,0,3.2-1.8,3.2-3.2c0-1.6-0.8-3.2-3.2-3.2C87.9,13.3,87.1,15.1,87.1,16.6L87.1,16.6z M90.3,13.9c2,0,2.5,1.5,2.5,2.6
		c0,1.1-0.5,2.6-2.4,2.6c-2,0-2.5-1.5-2.5-2.6C87.9,15.4,88.4,13.9,90.3,13.9L90.3,13.9z M97.3,17.1c1,0,1.4,1.2,1.7,1.8
		c0.3,0.6,0.6,0.7,1.1,0.7c0.2,0,0.4,0,0.5-0.1c0.1-0.1,0.2-0.1,0.2-0.2V19c0-0.1,0-0.1-0.1-0.1c-0.2,0.1-0.3,0.1-0.4,0.1
		c-0.2,0-0.4,0-0.5-0.3c-0.5-1-0.8-1.5-1.2-1.7c0.9-0.2,1.5-0.7,1.5-1.8c0-1.3-0.9-1.8-2.6-1.8H96c-0.1,0-0.2,0-0.2,0.2v5.9
		c0,0.1,0,0.2,0.2,0.2h0.4c0.1,0,0.2,0,0.2-0.2v-2.4H97.3L97.3,17.1z M96.5,16.6V14h0.8c1.2,0,1.8,0.4,1.8,1.3
		c0,0.9-0.6,1.3-1.7,1.3H96.5L96.5,16.6z"/>
	<path d="M83.1,1.3C83,1.1,83,1.1,82.9,1.1h-0.7C82,1.1,82,1.2,82,1.3v5.9c0,0.1,0,0.2,0.2,0.2h0.3c0.1,0,0.2,0,0.2-0.2v-4
		c0-0.4,0-1.1-0.1-1.4c0.1,0.3,0.1,0.5,0.4,1.1l1.9,4.3c0,0.1,0.1,0.1,0.2,0.1h0.6c0.1,0,0.2,0,0.2-0.1l1.9-4.3
		c0.3-0.6,0.3-0.8,0.4-1.1c-0.1,0.4-0.1,1-0.1,1.4v4c0,0.1,0,0.2,0.2,0.2h0.3c0.1,0,0.2,0,0.2-0.2V1.3c0-0.1,0-0.2-0.2-0.2H88
		c-0.1,0-0.1,0-0.2,0.1l-2.4,5.5L83.1,1.3L83.1,1.3z M96,7.2c0,0.1,0.1,0.1,0.2,0.1h0.4c0.1,0,0.2,0,0.1-0.2l-2.3-5.9
		c0-0.1-0.1-0.1-0.2-0.1h-0.7c-0.1,0-0.1,0-0.2,0.1l-2.3,5.9c-0.1,0.1,0,0.2,0.1,0.2h0.4c0.1,0,0.2,0,0.2-0.1l0.6-1.6h2.9L96,7.2
		L96,7.2z M93.9,1.8L95.2,5h-2.5L93.9,1.8L93.9,1.8z M101.4,4.2l2.1-2.8c0.1-0.1,0.1-0.2-0.1-0.2H103c-0.1,0-0.2,0-0.3,0.1l-1.8,2.4
		l-1.8-2.4C99,1.1,99,1.1,98.9,1.1h-0.5c-0.2,0-0.2,0.1-0.1,0.2l2.1,2.8l-2.2,3c-0.1,0.1-0.1,0.2,0.1,0.2h0.5c0.1,0,0.2,0,0.3-0.1
		l1.8-2.5l1.8,2.5c0.1,0.1,0.1,0.1,0.3,0.1h0.5c0.2,0,0.2-0.1,0.1-0.2L101.4,4.2L101.4,4.2z M110.9,5.1c1.6,0,2.6-0.6,2.6-2
		c0-1.4-1-1.9-2.8-1.9h-1.4c-0.2,0-0.2,0-0.2,0.2v5.9c0,0.1,0,0.2,0.2,0.2h0.4c0.1,0,0.2,0,0.2-0.2V5.1H110.9L110.9,5.1z M110,4.5
		V1.7h0.9c1.3,0,1.9,0.4,1.9,1.4c0,0.9-0.6,1.4-1.8,1.4H110L110,4.5z M116.7,6.7V1.3c0-0.1,0-0.2-0.2-0.2h-0.4c-0.2,0-0.2,0-0.2,0.2
		v5.9c0,0.1,0,0.2,0.2,0.2h3.8c0.2,0,0.2,0,0.2-0.2V6.9c0-0.1,0-0.2-0.2-0.2H116.7L116.7,6.7z M126.4,7.2c0,0.1,0.1,0.1,0.2,0.1h0.4
		c0.1,0,0.2,0,0.1-0.2l-2.3-5.9c0-0.1-0.1-0.1-0.2-0.1H124c-0.1,0-0.1,0-0.2,0.1l-2.3,5.9c-0.1,0.1,0,0.2,0.1,0.2h0.4
		c0.1,0,0.2,0,0.2-0.1l0.6-1.6h2.9L126.4,7.2L126.4,7.2z M124.3,1.8l1.2,3.2h-2.5L124.3,1.8L124.3,1.8z M134.2,7.3
		c0.1,0,0.2,0,0.2-0.1V1.3c0-0.1,0-0.2-0.2-0.2h-0.4c-0.2,0-0.2,0-0.2,0.2v4.3c0,0.3,0,0.5,0.1,0.8c-0.1-0.3-0.1-0.3-0.3-0.6
		l-3.3-4.6c-0.1-0.1-0.1-0.1-0.3-0.1h-0.4c-0.1,0-0.2,0-0.2,0.1v5.9c0,0.1,0,0.2,0.2,0.2h0.4c0.1,0,0.2,0,0.2-0.2V2.8
		c0-0.2,0-0.5-0.1-0.7c0.1,0.2,0.2,0.4,0.4,0.6l3.2,4.5c0.1,0.1,0.1,0.1,0.3,0.1H134.2L134.2,7.3z M137.6,4.3c0-1.4,0.6-2.6,2.5-2.6
		c0.9,0,1.5,0.2,1.7,0.3c0.1,0,0.2,0,0.2-0.1V1.6c0-0.1,0-0.2-0.1-0.2c-0.4-0.2-1.2-0.3-1.9-0.3c-2.3,0-3.2,1.4-3.2,3.3
		c0,1.9,0.9,3.1,3.3,3.1c1,0,1.7-0.2,1.9-0.3c0.1-0.1,0.1-0.1,0.1-0.2V6.6c0-0.1-0.1-0.1-0.2-0.1c-0.3,0.1-0.9,0.3-1.7,0.3
		C138.3,6.8,137.6,5.8,137.6,4.3L137.6,4.3z M144.4,7.2c0,0.1,0,0.2,0.2,0.2h0.4c0.1,0,0.2,0,0.2-0.2V5.3l1.1-1.1
		c1.1,0,1.4,1.7,1.8,2.5c0.3,0.6,0.7,0.7,1,0.7c0.2,0,0.3,0,0.5-0.1c0.1-0.1,0.2-0.1,0.2-0.2V6.8c0-0.1,0-0.1-0.2-0.1
		c-0.1,0-0.2,0.1-0.3,0.1c-0.2,0-0.3-0.1-0.4-0.4c-0.5-1.4-0.8-2.6-2-2.8l2.3-2.4c0.1-0.1,0-0.2-0.1-0.2h-0.6c-0.1,0-0.2,0-0.3,0.1
		l-3,3.1V1.3c0-0.1,0-0.2-0.2-0.2h-0.4c-0.2,0-0.2,0-0.2,0.2V7.2L144.4,7.2z M155,7.2c0,0.1,0,0.2,0.2,0.2h0.4c0.1,0,0.2,0,0.2-0.2
		V1.3c0-0.1,0-0.2-0.2-0.2h-0.4c-0.1,0-0.2,0-0.2,0.2V7.2L155,7.2z M163.5,7.3c0.1,0,0.2,0,0.2-0.1V1.3c0-0.1,0-0.2-0.2-0.2h-0.4
		c-0.2,0-0.2,0-0.2,0.2v4.3c0,0.3,0,0.5,0.1,0.8c-0.1-0.3-0.1-0.3-0.3-0.6l-3.3-4.6c-0.1-0.1-0.1-0.1-0.3-0.1h-0.4
		c-0.1,0-0.2,0-0.2,0.1v5.9c0,0.1,0,0.2,0.2,0.2h0.4c0.1,0,0.2,0,0.2-0.2V2.8c0-0.2,0-0.5-0.1-0.7c0.1,0.2,0.2,0.4,0.4,0.6l3.2,4.5
		c0.1,0.1,0.1,0.1,0.3,0.1H163.5L163.5,7.3z M170.3,1.5c0-0.1,0-0.1-0.1-0.2C170,1.2,169.4,1,168.4,1c-1.2,0-2.2,0.3-2.2,1.6
		c0,2.2,3.5,1.1,3.5,3.1c0,0.9-0.7,1.1-1.7,1.1c-0.9,0-1.6-0.2-1.9-0.4c-0.1,0-0.2,0-0.2,0.1v0.4c0,0.1,0,0.1,0.1,0.2
		c0.1,0.1,0.8,0.3,2,0.3c1.4,0,2.4-0.4,2.4-1.8c0-2.6-3.5-1.5-3.5-3.1c0-0.7,0.6-0.9,1.5-0.9c0.8,0,1.3,0.1,1.6,0.3
		c0.1,0.1,0.2,0,0.2-0.1V1.5L170.3,1.5z M175.1,7.2V1.7h1.9c0.2,0,0.2,0,0.2-0.2V1.3c0-0.1,0-0.2-0.2-0.2h-4.7c-0.2,0-0.2,0-0.2,0.2
		v0.3c0,0.1,0,0.2,0.2,0.2h1.9v5.5c0,0.1,0,0.2,0.2,0.2h0.4C175,7.3,175.1,7.3,175.1,7.2L175.1,7.2z M179.3,7.2c0,0.1,0,0.2,0.2,0.2
		h0.4c0.1,0,0.2,0,0.2-0.2V1.3c0-0.1,0-0.2-0.2-0.2h-0.4c-0.1,0-0.2,0-0.2,0.2V7.2L179.3,7.2z M185.1,7.2V1.7h1.9
		c0.2,0,0.2,0,0.2-0.2V1.3c0-0.1,0-0.2-0.2-0.2h-4.7c-0.1,0-0.2,0-0.2,0.2v0.3c0,0.1,0,0.2,0.2,0.2h1.9v5.5c0,0.1,0,0.2,0.2,0.2h0.4
		C185.1,7.3,185.1,7.3,185.1,7.2L185.1,7.2z M191.9,6.7c-1.2,0-1.8-0.6-1.8-1.8V1.3c0-0.1,0-0.2-0.2-0.2h-0.4c-0.1,0-0.2,0-0.2,0.2
		V5c0,1.5,0.8,2.4,2.6,2.4s2.6-0.9,2.6-2.4V1.3c0-0.1,0-0.2-0.2-0.2h-0.4c-0.1,0-0.2,0-0.2,0.2v3.7C193.7,6.2,193.1,6.7,191.9,6.7
		L191.9,6.7z M199.4,7.2V1.7h1.9c0.2,0,0.2,0,0.2-0.2V1.3c0-0.1,0-0.2-0.2-0.2h-4.7c-0.2,0-0.2,0-0.2,0.2v0.3c0,0.1,0,0.2,0.2,0.2
		h1.9v5.5c0,0.1,0,0.2,0.2,0.2h0.4C199.3,7.3,199.4,7.3,199.4,7.2L199.4,7.2z M203.8,7.3h3.7c0.1,0,0.2,0,0.2-0.2V6.9
		c0-0.1,0-0.2-0.2-0.2h-3.1V4.4h2.5c0.2,0,0.2,0,0.2-0.2V4c0-0.1,0-0.2-0.2-0.2h-2.5V1.7h3c0.2,0,0.2,0,0.2-0.2V1.3
		c0-0.1,0-0.2-0.2-0.2h-3.5c-0.2,0-0.2,0-0.2,0.2v5.9C203.6,7.3,203.6,7.3,203.8,7.3L203.8,7.3z"/>
	<path class="st1" d="M72.1,0.9v45.4 M1,0.9v45.4"/>
	<path class="st2" d="M19.8,35.3c-0.3,0-0.6,0-0.9,0c-0.2,0-0.4,0-0.5,0c-0.1,0-0.2,0-0.2,0.1c0,0.1,0.1,0.2,0.2,0.2
		c0.1,0,0.2,0,0.5,0c0.5,0,0.6,0.1,0.6,0.5v5.4l-5.2-5.9c-0.1-0.2-0.3-0.2-0.5-0.2h-1.9c-0.6,0-1-0.1-1.3-0.1c-0.1,0-0.2,0-0.2,0.2
		c0,0.1,0.1,0.1,0.2,0.1c0.1,0,0.2,0,0.5,0c0.5,0,0.6,0.1,0.6,0.5v8.7c0,0.4-0.1,0.5-0.6,0.5c-0.2,0-0.4,0-0.5,0
		c-0.1,0-0.2,0.1-0.2,0.2c0,0.1,0.1,0.1,0.2,0.1c0.1,0,0.3,0,0.5,0c0.3,0,0.6,0,0.9,0s0.5,0,0.8,0c0.2,0,0.4,0,0.5,0
		c0.1,0,0.2,0,0.2-0.1c0-0.1-0.1-0.2-0.2-0.2c-0.1,0-0.2,0-0.5,0c-0.5,0-0.6-0.1-0.6-0.5v-8.2l7.4,8.9c0.1,0.2,0.2,0.2,0.4,0.2
		c0.1,0,0.2-0.1,0.2-0.3V36c0-0.4,0.1-0.5,0.6-0.5c0.2,0,0.3,0,0.5,0c0.1,0,0.2,0,0.2-0.2c0-0.1-0.1-0.1-0.2-0.1c-0.1,0-0.3,0-0.5,0
		C20.3,35.2,20,35.3,19.8,35.3L19.8,35.3z"/>
	<path class="st2" d="M55,45.5c0.7,0,1.3,0,1.9,0c0.2,0,0.4,0,0.5,0c0.1,0,0.2,0,0.2-0.2c0-0.1-0.1-0.1-0.2-0.1c-0.1,0-0.2,0-0.5,0
		c-0.5,0-0.6-0.1-0.6-0.5v-3.8l1.1-1c0.7,0.1,1.2,1.3,1.5,2.5c0.7,2.6,1.6,3.3,3.9,3.3c0.5,0,1.2-0.1,1.6-0.2
		c0.2-0.1,0.4-0.2,0.3-0.3c0-0.1-0.1-0.1-0.3,0c-0.3,0.2-0.5,0.2-0.8,0.2c-0.6,0-1.3-0.8-1.9-2.9c-0.7-2.4-1.7-2.8-3.9-2.8l4-3.8
		c0.3-0.3,0.4-0.3,1-0.3c0.1,0,0.3,0,0.5,0c0.2,0,0.3-0.1,0.3-0.1c0-0.1-0.1-0.2-0.3-0.2c-0.6,0-1,0.1-1.6,0.1
		c-0.9,0-1.1-0.1-1.3-0.1c-0.2,0-0.3,0.1-0.3,0.2c0,0.1,0.1,0.1,0.3,0.1c0.1,0,0.4,0,0.6,0c0.3,0,0.6,0.1,0.2,0.4l-4.7,4.4V36
		c0-0.4,0.1-0.5,0.6-0.5c0.3,0,0.4,0,0.5,0c0.1,0,0.2-0.1,0.2-0.2c0-0.1-0.1-0.2-0.2-0.2c0,0-0.3,0-0.5,0c-0.6,0-1.2,0-1.9,0
		c-0.6,0-1.3,0-1.9-0.1c-0.2,0-0.4,0-0.5,0c-0.1,0-0.2,0-0.2,0.2c0,0.1,0.1,0.2,0.2,0.2c0.1,0,0.2,0,0.5,0c0.5,0,0.6,0.1,0.6,0.5
		v8.7c0,0.4-0.1,0.5-0.6,0.5c-0.3,0-0.4,0-0.5,0c-0.1,0-0.2,0.1-0.2,0.1c0,0.1,0.1,0.2,0.2,0.2c0.1,0,0.3,0,0.5,0
		C53.7,45.5,54.4,45.5,55,45.5L55,45.5z"/>
	<path class="st2" d="M35.8,40.5c0-2.7,0.8-5.1,3.6-5.1c1.6,0,2.8,0.7,3.2,1.6c-0.2-0.2-0.5-0.3-0.9-0.3c-0.8,0-1.5,0.6-1.5,1.5
		c0,0.9,0.6,1.4,1.4,1.4c0.8,0,1.5-0.5,1.5-1.4c0-1.3-0.7-3.1-4.1-3.1c-3.7,0-5.9,2.1-5.9,5.4c0,3.5,2.5,5.2,6,5.2
		c1.6,0,2.5-0.4,3.4-0.8c0.2-0.1,0.6-0.3,0.6-0.3c0.1-0.1,0.2-0.2,0.1-0.3c-0.1-0.1-0.2-0.1-0.3,0c-0.3,0.2-0.4,0.2-0.6,0.3
		c-0.8,0.4-1.7,0.6-2.9,0.6C36.9,45.4,35.8,43.8,35.8,40.5L35.8,40.5z"/>
	<path class="st2" d="M20.4,21.3c0-2.5-1.8-3.2-5.4-3.2h-0.2c-0.7,0-1.2,0-1.9,0c-1.1,0-1.7,0-2.4,0c-0.1,0-0.2,0-0.2,0.1
		c0,0.1,0.1,0.2,0.2,0.2c0.1,0,0.2,0,0.5,0c0.5,0,0.6,0.1,0.6,0.5v8.7c0,0.4-0.1,0.5-0.6,0.5c-0.3,0-0.4,0-0.5,0
		c-0.1,0-0.2,0.1-0.2,0.1c0,0.1,0.1,0.2,0.2,0.2c0.1,0,0.3,0,0.5,0c0.6,0,1.2,0,1.9,0c0.7,0,1.3,0,1.9,0c0.2,0,0.4,0,0.5,0
		c0.1,0,0.2,0,0.2-0.2c0-0.1-0.1-0.1-0.2-0.1c-0.1,0-0.2,0-0.5,0c-0.5,0-0.6-0.1-0.6-0.5v-3H15C18.5,24.6,20.4,23.8,20.4,21.3
		L20.4,21.3z M17.7,21.3c0,1.9-0.8,2.9-2.7,2.9h-0.8v-5.3c0-0.3,0.1-0.4,0.6-0.4h0.1C16.8,18.5,17.7,19.5,17.7,21.3L17.7,21.3z"/>
	<path class="st0" d="M37.7,18.1c0.2,0,0.4,0,0.5,0c0.1,0,0.2,0,0.2,0.1c0,0.1-0.1,0.2-0.2,0.2c-0.1,0-0.2,0-0.5,0
		c-0.5,0-0.6,0.1-0.6,0.5v9.3h0.7c3.2,0,4.2-1.4,4.3-2.3c0-0.2,0-0.3,0-0.5c0-0.1,0.1-0.2,0.2-0.2c0.1,0,0.2,0.1,0.2,0.2
		c0,0.2-0.1,0.3-0.1,0.6L42.1,28c0,0.3-0.1,0.4-0.5,0.4h-6.3c-0.8,0-1.3,0.1-1.9,0.1c-0.1,0-0.2,0-0.2-0.2c0-0.1,0.1-0.1,0.2-0.1
		c0.1,0,0.2,0,0.5,0c0.5,0,0.6-0.1,0.6-0.5v-8.8c0-0.3-0.2-0.4-0.6-0.4c-0.2,0-0.3,0-0.5,0c-0.1,0-0.2-0.1-0.2-0.2
		c0-0.1,0.1-0.1,0.2-0.1c0.1,0,0.3,0,0.5,0c0.6,0,1.3,0,1.9,0C36.5,18.2,37.1,18.1,37.7,18.1L37.7,18.1z"/>
	<path class="st2" d="M63.4,28.3c0-0.1-0.1-0.1-0.3-0.1c-0.1,0-0.3,0-0.4,0c-0.5,0-0.6-0.1-1.2-1.3l-3.9-8.5
		c-0.1-0.2-0.1-0.3-0.3-0.3c-0.1,0-0.2,0.1-0.3,0.3l-3.8,8.9c-0.4,0.8-0.7,1-1,1c-0.1,0-0.3,0-0.4,0c-0.2,0-0.3,0-0.3,0.1
		c0,0.1,0.1,0.2,0.3,0.2c0.6,0,0.7-0.1,1.2-0.1c1.3,0,1.3,0.1,1.5,0.1c0.2,0,0.3,0,0.3-0.2c0-0.1-0.1-0.1-0.2-0.1
		c-0.1,0-0.4,0-0.6,0c-0.3,0-0.5-0.1-0.5-0.4c0-0.1,0-0.2,0.1-0.4l0.8-1.8h3.9l0.8,1.8c0.1,0.2,0.1,0.4,0.1,0.5
		c0,0.2-0.1,0.4-0.4,0.4c-0.2,0-0.5,0-0.6,0c-0.1,0-0.2,0.1-0.2,0.1c0,0.1,0.1,0.2,0.3,0.2c0.3,0,1.4-0.1,2.7-0.1
		c0.6,0,1.6,0.1,2.2,0.1C63.3,28.4,63.4,28.4,63.4,28.3L63.4,28.3z M58.2,25.2h-3.6l1.7-4L58.2,25.2L58.2,25.2z"/>
	<path class="st2" d="M14,1h-2.1c-0.6,0-0.9,0-1.3,0c-0.1,0-0.2,0-0.2,0.2c0,0.1,0.1,0.1,0.2,0.1c0.1,0,0.2,0,0.5,0
		c0.5,0,0.6,0.1,0.6,0.5v8.7c0,0.4-0.1,0.5-0.6,0.5c-0.2,0-0.4,0-0.5,0c-0.1,0-0.2,0.1-0.2,0.2c0,0.1,0.1,0.1,0.2,0.1
		c0.1,0,0.3,0,0.5,0c0.3,0,0.4,0,0.8,0c0.4,0,0.6,0,0.8,0c0.2,0,0.4,0,0.5,0c0.1,0,0.2,0,0.2-0.1c0-0.1-0.1-0.2-0.2-0.2
		c-0.1,0-0.2,0-0.5,0c-0.5,0-0.6-0.1-0.6-0.5V2.1l4.1,9.2c0,0.1,0.1,0.1,0.2,0.1h0c0.1,0,0.2-0.1,0.2-0.1l4-9.2v8.4
		c0,0.4-0.1,0.5-0.6,0.5c-0.2,0-0.4,0-0.5,0c-0.1,0-0.2,0.1-0.2,0.2c0,0.1,0.1,0.1,0.2,0.1c0.1,0,0.3,0,0.5,0c0.6,0,1.2,0,1.9,0
		c0.6,0,1,0,1.6,0c0.2,0,0.4,0,0.5,0c0.1,0,1.2,0,1.2-0.1c0-0.1-1.1-0.2-1.2-0.2c-0.1,0-0.2,0-0.5,0c-0.5,0-0.6-0.1-0.6-0.5V1.8
		c0-0.4,0.1-0.5,0.6-0.5c0.2,0,0.4,0.1,0.5,0.1c0.1,0,1.2,0,1.2-0.1C25.1,1.1,24,1,23.9,1h-3c-0.3,0-0.4,0.1-0.5,0.3l-3,6.8l-3-6.8
		C14.3,1.2,14.2,1,14,1L14,1z"/>
	<path class="st2" d="M44.1,11.2c0-0.1-0.1-0.1-0.3-0.1c-0.1,0-0.3,0-0.4,0c-0.5,0-0.6-0.1-1.2-1.3l-3.9-8.5
		c-0.1-0.2-0.1-0.3-0.3-0.3c-0.1,0-0.2,0.1-0.3,0.3L34,10.1c-0.4,0.8-0.7,1-1,1c-0.1,0-0.3,0-0.4,0c-0.2,0-0.3,0-0.3,0.1
		c0,0.1,0.1,0.2,0.3,0.2c0.6,0,0.7-0.1,1.2-0.1c1.3,0,1.3,0.1,1.5,0.1c0.2,0,0.3,0,0.3-0.2c0-0.1-0.1-0.1-0.2-0.1
		c-0.1,0-0.4,0-0.6,0c-0.3,0-0.5-0.1-0.5-0.4c0-0.1,0-0.2,0.1-0.4l0.8-1.8H39l0.8,1.8c0.1,0.2,0.1,0.4,0.1,0.5
		c0,0.2-0.1,0.4-0.4,0.4c-0.2,0-0.5,0-0.6,0c-0.1,0-0.2,0.1-0.2,0.1c0,0.1,0.1,0.2,0.3,0.2c0.3,0,1.4-0.1,2.7-0.1
		c0.6,0,1.6,0.1,2.2,0.1C44,11.3,44.1,11.3,44.1,11.2L44.1,11.2z M38.9,8.1h-3.6l1.7-4L38.9,8.1L38.9,8.1z"/>
	<path class="st2" d="M56.6,2.2c-0.4-0.6-0.3-0.9,0.1-0.9c0.1,0,0.5,0,0.6,0c0.1,0,0.2-0.1,0.2-0.1c0-0.1-0.1-0.2-0.3-0.2
		c-0.2,0-1,0.1-2.2,0.1c-0.5,0-2-0.1-2.6-0.1c-0.2,0-0.2,0.1-0.2,0.2c0,0.1,0.1,0.1,0.2,0.1c0.1,0,0.3,0,0.4,0
		c0.4,0,0.7,0.2,1.1,0.9l2.7,4.6l-2.5,3.2c-0.7,1-1,1.1-1.4,1.1c-0.1,0-0.3,0-0.4,0c-0.2,0-0.3,0-0.3,0.1c0,0.1,0.1,0.2,0.3,0.2
		c0.4,0,0.5-0.1,1.1-0.1c0.8,0,1.2,0.1,1.5,0.1c0.1,0,0.2,0,0.2-0.2c0-0.1-0.1-0.1-0.2-0.1c-0.1,0-0.4,0-0.6,0c-0.4,0-0.5-0.2,0-0.9
		l2.4-3.1l1.8,3.1c0.4,0.6,0.2,0.9-0.1,0.9c-0.1,0-0.5,0-0.6,0c-0.1,0-0.2,0.1-0.2,0.1c0,0.1,0.1,0.2,0.2,0.2c0.6,0,1.3-0.1,2.2-0.1
		c0.8,0,2,0.1,2.6,0.1c0.2,0,0.3-0.1,0.3-0.2c0-0.1-0.1-0.1-0.3-0.1c-0.1,0-0.2,0-0.4,0c-0.3,0-0.7-0.1-1.7-1.9l-2.2-3.8l2.3-3
		c0.7-1,0.9-1.1,1.4-1.1c0.1,0,0.3,0,0.4,0c0.2,0,0.2,0,0.2-0.1c0-0.1-0.1-0.2-0.2-0.2c-0.5,0-0.9,0-1.2,0c-0.3,0-0.9,0-1.1,0
		c-0.1,0-0.2,0-0.2,0.2c0,0.1,0.1,0.1,0.2,0.1c0,0,0.4-0.1,0.6,0c0.3,0,0,0.3-0.4,0.9L58.3,5L56.6,2.2L56.6,2.2z"/>
</g>
</svg>
